<svg xmlns="http://www.w3.org/2000/svg" width="512" height="512" viewBox="0 0 32 32" fill="none">
  <!-- Background -->
  <rect width="32" height="32" rx="6" fill="#FFF3E0"/>
  <!-- Background circle -->
  <circle cx="16" cy="16" r="14" fill="#3d8b3d" opacity="0.12"/>
  <!-- Main leaf -->
  <path d="M16 27C16 27 16 18 16 15C16 10 20 7 24 6C24 6 25 13 21 18C18 21.5 16 22 16 22" fill="#4ade80" opacity="0.5"/>
  <path d="M16 27C16 27 16 18 16 15C16 10 20 7 24 6C24 6 25 13 21 18C18 21.5 16 22 16 22" stroke="#2d7a4f" stroke-width="1.8" stroke-linecap="round" stroke-linejoin="round" fill="none"/>
  <!-- Secondary leaf -->
  <path d="M16 24C16 24 16 19 16 17C16 13 11 10 7 9C7 9 6 15 10 19C13 22 16 22 16 22" fill="#6dd67c" opacity="0.4"/>
  <path d="M16 24C16 24 16 19 16 17C16 13 11 10 7 9C7 9 6 15 10 19C13 22 16 22 16 22" stroke="#3d8b3d" stroke-width="1.8" stroke-linecap="round" stroke-linejoin="round" fill="none"/>
  <!-- Stem -->
  <path d="M16 27V14" stroke="#2d7a4f" stroke-width="2" stroke-linecap="round"/>
  <!-- Leaf veins -->
  <path d="M16 16L20 12" stroke="#2d7a4f" stroke-width="1" stroke-linecap="round" opacity="0.3"/>
  <path d="M16 18L11 14" stroke="#3d8b3d" stroke-width="1" stroke-linecap="round" opacity="0.3"/>
  <!-- Sparkle dots -->
  <circle cx="22" cy="4" r="1.2" fill="#fbbf24" opacity="0.7"/>
  <circle cx="25" cy="7" r="0.7" fill="#fbbf24" opacity="0.4"/>
  <circle cx="6" cy="7" r="0.9" fill="#fbbf24" opacity="0.5"/>
</svg>
